<svg xmlns="http://www.w3.org/2000/svg" width="775.15" height="159.18" viewBox="0 0 775.15 159.18"><g fill="currentColor"><path d="M120.21 17.964l-6.34-2.22L70.17.364c-1.75-.61-2.45.21-1.57 1.84 0 0 .43.79 1.55 2.71 6.95 11.36 25.65 36.35 25.65 36.35 1.11 1.47.61 2.13-1.11 1.45l-13.27-4.26a11.07 11.07 0 01-5.28-3.5l-5.6-7.65a7.74 7.74 0 00-5.3-2.85h-4.18a7.79 7.79 0 00-5.31 2.86l-5.63 7.69a11.15 11.15 0 01-5.27 3.52l-12.95 4.21c-1.71.68-2.21 0-1.11-1.45 0 0 18.71-25 25.65-36.35 1.17-2 1.68-2.92 1.68-2.92.88-1.62.19-2.43-1.55-1.8l-42.61 15.49c-1.73.63-4.58 1.65-6.32 2.26l-4.47 1.57A5.11 5.11 0 000 24.014v58.65a13.17 13.17 0 001.85 6.16l5.31 8.07a13.32 13.32 0 011.85 6.17v15.32a9.18 9.18 0 002.39 5.71l34.83 34.26c1.31 1.3 2.24.85 2.07-1 0 0-2.37-24.48-4.61-39.17s-9.32-31.92-9.32-31.92a6.5 6.5 0 00-4.61-3.56l-5.72-.8a4.58 4.58 0 01-3.7-3.8l-1.05-9.29a2.23 2.23 0 012.89-2.58l24.07 5.55a3.71 3.71 0 012.79 4.07l-2.65 18.44a6.56 6.56 0 002.14 5.43l12.77 10.24a4.25 4.25 0 005.19-.07l12-10.11a6.73 6.73 0 002.08-5.49l-2.65-18.44a3.7 3.7 0 012.8-4l25-5.59a2.25 2.25 0 012.9 2.6l-1.05 9.29a4.45 4.45 0 01-3.71 3.72l-8.24 1a5.42 5.42 0 00-4.23 3.63s-4.16 15.14-7.45 31.62-5.26 39.32-5.26 39.32c-.16 1.84.78 2.29 2.1 1l34.83-34.26a9.23 9.23 0 002.39-5.71v-15.41a12.21 12.21 0 012-6.08l6-8.24a12.24 12.24 0 002-6.08v-58.65a5.11 5.11 0 00-3.17-4.48z" fill-rule="evenodd"></path><path d="M244.23 128.184a4.32 4.32 0 01-2.91 4.21 5.18 5.18 0 01-2.28.56q-2.53 0-3.68-3.22l-7.47-19.78h-40.16l-7.22 19.78q-1.14 3.23-3.8 3.22a4.46 4.46 0 01-2.16-.56 4.34 4.34 0 01-3-4.21 5.689 5.689 0 01.51-2.38l30.53-82.2q1.51-3.92 5.2-3.92h.25q3.42 0 4.94 3.92l30.78 82.2a5.69 5.69 0 01.47 2.38zm-52.83-28.33h32.66l-16.6-44.18zM293.45 64.994a6.37 6.37 0 010 7.44 4.31 4.31 0 01-3.36 1.33q-11.4 0-17.42 5.19t-6 14.31v34.64a5.37 5.37 0 01-1.2 3.72 4.91 4.91 0 01-6.72 0 5.37 5.37 0 01-1.2-3.72v-59.19a5.37 5.37 0 011.2-3.72 4.91 4.91 0 016.72 0 5.37 5.37 0 011.2 3.72v7.43a24.4 24.4 0 019.63-9.32 29 29 0 0113.76-3.16 4.35 4.35 0 013.39 1.33zM394.47 69.694q5 6 4.94 20.06v38.15q0 5.06-4.56 5.05t-4.56-5.05v-38.15q0-8.55-2.78-12.27t-9.25-3.72h-5.2c-5.06 0-8.7 1.24-10.89 3.72s-3.29 6.57-3.29 12.27v38.15q0 5.06-4.57 5.05t-4.56-5.05v-38.15q0-8.55-2.78-12.27t-9.25-3.72h-5.19q-7.61 0-10.9 3.72t-3.29 12.27v38.15q0 5.06-4.56 5.05t-4.56-5.05v-59.19q0-5.06 4.56-5t4.56 5v4.07a20.94 20.94 0 017.09-7 19.75 19.75 0 019.63-2.17h2.66q7.47 0 11.78 2.46a16.21 16.21 0 016.72 8.06 21.059 21.059 0 016.9-8.06 18.21 18.21 0 019.94-2.46h5.2q11.27.05 16.21 6.08zM421.77 126.504q-5.88-6.45-5.89-20.06v-16.13q0-13.74 5.83-20.2t18.24-6.45h10.39q12.42 0 18.24 6.45t5.83 20.2v16q0 13.61-5.83 20.13t-18.24 6.52h-10.39q-12.28-.01-18.18-6.46zm28.57-3.65q5.82 0 9-1.54a9.13 9.13 0 004.56-5.05 28 28 0 001.4-10v-16a28 28 0 00-1.4-10 9.16 9.16 0 00-4.56-5.05q-3.16-1.54-9-1.54h-10.39q-5.82 0-9 1.47a8.78 8.78 0 00-4.56 5.05 28.59 28.59 0 00-1.4 10v16.26a27.45 27.45 0 001.4 9.82 9.05 9.05 0 004.56 5.05q3.17 1.54 9 1.54zM528.06 64.994a6.37 6.37 0 010 7.44 4.3 4.3 0 01-3.36 1.33q-11.4 0-17.42 5.19t-6 14.31v34.64a5.37 5.37 0 01-1.2 3.72 4.9 4.9 0 01-6.71 0 5.32 5.32 0 01-1.21-3.72v-59.19a5.32 5.32 0 011.21-3.72 4.9 4.9 0 016.71 0 5.37 5.37 0 011.2 3.72v7.43a24.4 24.4 0 019.63-9.32 29 29 0 0113.81-3.16 4.33 4.33 0 013.34 1.33zM596.53 70.114q5.82 6.47 5.83 20.2v16q0 13.61-5.83 20.13t-18.24 6.52h-4.82q-14.19 0-20.52-8.13v3.08a5.37 5.37 0 01-1.2 3.72 4.91 4.91 0 01-6.72 0 5.37 5.37 0 01-1.2-3.72v-88.09a5.37 5.37 0 011.2-3.72 4.91 4.91 0 016.72 0 5.37 5.37 0 011.2 3.72v32q6.33-8.15 20.52-8.14h4.82q12.41-.02 18.24 6.43zm-3.3 20.2a28.42 28.42 0 00-1.39-10 9.16 9.16 0 00-4.56-5.05q-3.16-1.54-9-1.54h-4.82q-9.37 0-14.95 2.88t-5.57 8.48v26.37q0 5.61 5.57 8.49t14.95 2.87h4.82q5.82 0 9-1.54a9.13 9.13 0 004.56-5.05q1.4-3.51 1.39-10zM622.12 127.904q-4.56-5-4.56-15.43v-72.65a5.37 5.37 0 011.2-3.72 4.91 4.91 0 016.72 0 5.37 5.37 0 011.2 3.72v72.63q0 6 2 8.21t7.38 2.19a4.51 4.51 0 013.49 1.33 6.37 6.37 0 010 7.44 4.47 4.47 0 01-3.49 1.33q-9.38 0-13.94-5.05zM659.3 126.504q-5.9-6.45-5.89-20.06v-16.13q0-13.74 5.83-20.2t18.24-6.45h10.39q12.41 0 18.24 6.45t5.83 20.2v16q0 13.61-5.83 20.13t-18.24 6.52h-10.39q-12.28-.01-18.18-6.46zm28.57-3.65q5.82 0 9-1.54a9.13 9.13 0 004.56-5.05 28 28 0 001.4-10v-16a28 28 0 00-1.4-10 9.16 9.16 0 00-4.56-5.05q-3.16-1.54-9-1.54h-10.39q-5.83 0-9 1.47a8.84 8.84 0 00-4.56 5.05 28.62 28.62 0 00-1.39 10v16.26a27.481 27.481 0 001.39 9.82 9.13 9.13 0 004.56 5.05q3.17 1.54 9 1.54zM775.15 127.904a5 5 0 01-1.9 3.79 4.77 4.77 0 01-3 1.26c-1.27 0-2.41-.75-3.42-2.24l-18.5-26.51-17.6 26.37c-1 1.59-2.2 2.38-3.55 2.38a4.53 4.53 0 01-2.79-1.26 4.88 4.88 0 01-2.15-3.93 5.771 5.771 0 011.14-3.22l19.13-28.62-16.6-23.84a5.819 5.819 0 01-1.14-3.23 5.3 5.3 0 012-3.93 4.63 4.63 0 012.91-1.26c1.27 0 2.45.75 3.55 2.24l15.83 22.73 16-22.87a4.26 4.26 0 013.42-2.1 4.66 4.66 0 012.91 1.26 4.89 4.89 0 012 3.79 5.82 5.82 0 01-1.14 3.23l-17.49 25 19.3 27.6a6 6 0 011.09 3.36z"></path></g></svg>