<svg xmlns="http://www.w3.org/2000/svg" width="188" height="25" viewBox="0 0 188 25" style="max-width: 114px;"><g color="currentColor" fill="currentColor" fill-rule="evenodd"><path d="M10.17 24.34H0V1.11h9a12.94 12.94 0 014.07.57 5.76 5.76 0 012.58 1.53 6 6 0 011.56 4.05 4.78 4.78 0 01-1.76 4.06 6.2 6.2 0 01-.84.58c-.15.08-.43.2-.82.38a6.12 6.12 0 013.43 1.94 5.39 5.39 0 011.28 3.68 6.23 6.23 0 01-1.66 4.28c-1.227 1.44-3.45 2.16-6.67 2.16zm-5-13.82h2.47a8.34 8.34 0 003.21-.47A2 2 0 0011.9 8a2.06 2.06 0 00-1-2 7.62 7.62 0 00-3.25-.5H5.19l-.02 5.02zm0 9.44h3.57a8 8 0 003.34-.55 2.18 2.18 0 001.11-2.16A2.07 2.07 0 0012 15.12a10.16 10.16 0 00-3.77-.51h-3l-.06 5.35zm33.65 4.38l-2.16-5h-9.73l-2.17 5h-5.51l10-23.23h5l10 23.23h-5.43zM31.81 8l-2.92 6.74h5.81L31.81 8zM55.91 19.76a7.65 7.65 0 006.25-3l3.32 3.43a12.54 12.54 0 01-18.16 1.06 11.47 11.47 0 01-3.47-8.56A11.55 11.55 0 0147.39 4 11.9 11.9 0 0156.05.58a12.25 12.25 0 019.57 4.36l-3.23 3.65a7.54 7.54 0 00-6.11-3.06 7.13 7.13 0 00-5 1.91 6.67 6.67 0 00-2.08 5.16 7 7 0 002 5.2 6.5 6.5 0 004.71 1.96zM68.86 1.11H74v9.54l8.77-9.54h6.42L80 11.38c.8 1.107 2.273 3.173 4.42 6.2 2.15 3 3.75 5.28 4.82 6.76h-6l-6.81-9.17L74 17.76v6.58h-5.14V1.11zM92.09 24.34V1.11h5.19v18.61h9.9v4.62zM110.5 1.11h5.18v23.23h-5.18zM135.62 1.11h5.18v23.23h-5.18L124.55 9.79v14.55h-5.18V1.11h4.85l11.4 15zM144.38 1.11h5.18v9.54l8.77-9.54h6.42l-9.24 10.27c.8 1.107 2.273 3.173 4.42 6.2s3.753 5.28 4.82 6.76h-6.05l-6.81-9.17-2.33 2.59v6.58h-5.18V1.11zm39.69 10.94h3.54A12.48 12.48 0 00184.27 4l-2.5 2.51a8.91 8.91 0 012.3 5.54zm-8.51 9.41V25a12.46 12.46 0 008.07-3.34l-2.5-2.5a8.94 8.94 0 01-5.57 2.3zm-.9-17.92V0a12.48 12.48 0 00-8.07 3.34l2.51 2.5a9 9 0 015.56-2.3zm-5.56 15.62l-2.51 2.5a12.48 12.48 0 008.07 3.34v-3.54a8.94 8.94 0 01-5.56-2.3z"></path><path d="M168.46 6.49L166 4a12.46 12.46 0 00-3.34 8.07h3.54a8.92 8.92 0 012.26-5.58zM166.15 13h-3.54a12.46 12.46 0 003.39 8l2.51-2.5a9 9 0 01-2.36-5.5zm17.92 0a8.94 8.94 0 01-2.3 5.57l2.5 2.5a12.46 12.46 0 003.34-8.07h-3.54zm-2.94-7.16l2.5-2.5A12.46 12.46 0 00175.56 0v3.54a9 9 0 015.57 2.3z"></path></g></svg>