<svg xmlns="http://www.w3.org/2000/svg" width="768" height="157.333" viewBox="0 0 768 157.333" class="mambu_inline_svg__Clients_logo__2wwya"><path fill="currentColor" fill-rule="evenodd" d="M632.608 144.299h-31.123a7.83 7.83 0 01-7.834-7.843V35.172a7.83 7.83 0 017.834-7.841h30.12c18.336 0 31.174 11.846 31.174 31.036 0 10.012-5 18.856-13.504 24.694 10.001 5.84 16.836 15.852 16.836 28.032 0 20.523-13.502 33.206-33.503 33.206zM604.355 78.62h24.561c13.416 0 23.655-9.157 23.655-20.778 0-13.207-7.238-20.958-20.654-20.958h-27.562zm-.014 55.079l28.624.067c13.724 0 23.052-7.151 23.052-22.479 0-12.43-11.262-22.307-25.869-22.307l-25.807-.066V133.7"></path><path fill="currentColor" d="M283.296 120.97s1.27-4.198 2.072-6.113l34.313-80.185c2.52-5.66 4.951-7.341 8.167-7.341h4.23l5.407 117.008-11.269-.006-3.636-80.702c-.127-2.775-.077-8.678-.077-8.678s-2.003 6.058-3.127 8.702l-36.08 83.074-36.08-83.074c-1.123-2.644-3.127-8.702-3.127-8.702s.05 5.903-.076 8.678l-3.637 80.702-11.299.006 5.407-117.008h4.261c3.216 0 5.646 1.681 8.166 7.341l34.313 80.185c.801 1.915 2.072 6.112 2.072 6.112m231.092 0s1.27-4.197 2.072-6.112l34.313-80.185c2.519-5.66 4.95-7.341 8.166-7.341h4.232l5.406 117.008-11.27-.006-3.636-80.702c-.127-2.775-.078-8.678-.078-8.678s-2.004 6.058-3.125 8.702l-36.08 83.074-36.081-83.074c-1.122-2.644-3.126-8.702-3.126-8.702s.05 5.903-.077 8.678l-3.636 80.702-11.299.006 5.407-117.008h4.26c3.216 0 5.647 1.681 8.165 7.341l34.314 80.185c.802 1.915 2.073 6.112 2.073 6.112m-135.57-30.3h40.59l-10.097-43.237c-1.528-6.039-5.159-8.859-9.76-9.03l-.419-.002c-4.815 0-8.64 2.797-10.217 9.032zm26.11 11.44h-28.777l-8.375 36.252c-1.14 4.94-4.107 5.964-6.33 5.974l-6.609.004 23.122-98.164c2.793-12.414 11.04-18.844 21.173-18.844l.55.013c9.866.243 17.846 6.655 20.585 18.83l23.12 98.165-6.607-.004c-2.224-.01-5.19-1.034-6.33-5.974l-8.375-36.252h-17.147"></path><g clip-path="url(#mambu_inline_svg__a)" transform="matrix(1.33333 0 0 -1.33333 0 157.333)"><path fill="currentcolor" d="M515.898 39.389l.072 58.113s8.388 1.24 8.388-7.749V39.224c0-11.286 6.9-21.722 21.395-21.722 14.496 0 21.395 10.291 21.395 21.722v50.529c0 8.989 8.389 7.749 8.389 7.749l.071-58.113c0-17.501-10.757-29.869-29.85-29.872-19.101.003-29.86 12.298-29.86 29.872"></path><path fill="currentColor" d="M8.582 89.156c8.097 13.221 21.406 23.22 37.782 26.694 16.121 3.421 33-.577 45.689-9.074-2.874-1.25-12.937 4.376-19.917-16.185-4.22-12.432-14.81-14.96-29.814-4.085-21.05 15.257-28.839.29-33.74 2.65"></path><path fill="currentcolor" d="M31.321 59.628c11.355-19.541 36.918-28.284 48.765-8.95 6.854 11.187 5.458 29.352 9.012 39.614 2.006 5.79 7.813 10.103 15.42 3.465 4.713-4.114 8.628-12.282 10.816-21.112C123.11 41.283 104.069 9.55 72.686 1.737 41.303-6.075 9.417 13.208 1.588 44.557c-2.732 10.941-2.44 24.866 4.884 31.099 3.865 3.29 10.572 3.457 14.956-.643 4.622-4.32 6.274-9.156 9.893-15.385"></path></g></svg>