<svg xmlns="http://www.w3.org/2000/svg" width="276" height="58" viewBox="0 0 276 58"><g fill="currentColor"><path d="M30 35h3.001v3.001H30V35zm-6 0h3.001v3.001H24V35zm6-6h3.001v3.001H30V29zm-6 0h3.001v3.001H24V29zm0-6h3.001v3.001H24V23zm-6 0h3.001v3.001H18V23zm-6 0h3.001v3.001H12V23zm6-6h3.001v3.001H18V17zm-6 0h3.001v3.001H12V17zm0-6h3.001v3.001H12V11zm-6 0h3.001v3.001H6V11zm-6 0h3.001v3.001H0V11zm6-6h3.001v3.001H6V5zM0 5h3.001v3.001H0V5zM30 23h3.001v3.001H30V23zm0-6l3 .005V20h-2.992L30 17zm-6 0h3.001v3.001H24V17zm6-6h3.001v3.001H30V11zm-6 0h3.001v3.001H24V11zm-6 0h3.001v3.001H18V11zm12-6h3.001v3.001H30V5zm-6 0h3.001v3.001H24V5zm-6 0h3.001v3.001H18V5zm-6 0h3.001v3.001H12V5zm67.333 35.196L58.691 9.889h-.21v23.794c0 3.939.368 4.202 2.469 4.622l1.89.367v1.471H51.917v-1.47l1.576-.368c1.68-.368 2.258-.63 2.258-4.36V9.417c0-3.204-.473-3.467-2.048-3.834l-1.786-.368v-1.47H65.73l14.39 21.218h.21v-14.76c0-3.939-.315-4.149-2.468-4.621l-1.996-.368v-1.47h11.03v1.47l-1.576.368c-1.68.367-2.259.63-2.259 4.359v30.254h-3.729zm20.795.577c-9.139 0-13.708-5.462-13.708-14.391 0-9.14 6.775-14.234 13.708-14.234 7.249 0 11.766 3.624 11.923 13.13H94.718c.158 8.615 3.415 10.978 8.824 10.978 3.257 0 5.726-.945 7.721-1.996v1.734c-1.838 2.048-5.83 4.78-11.135 4.78zm-.42-26.63c-2.678 0-4.78 2.522-4.99 9.14l8.982-.473c0-6.355-.84-8.666-3.992-8.666zm24.161 26l-7.983-21.43c-1.156-3.098-1.786-3.729-3.152-4.149l-.998-.315v-1.366h14.812v1.366l-1.156.315c-.893.263-1.313.735-1.313 1.628 0 .788.368 1.944.84 3.414l3.887 12.133h.315l3.887-11.292-.578-1.734c-1.103-3.151-1.575-3.781-2.73-4.149l-1.051-.315v-1.366h14.654v1.366l-1.418.368c-.998.262-1.471.945-1.471 2.048 0 .683.21 1.68.63 2.941l3.992 12.133h.263l3.781-12.133c.42-1.365.63-2.258.63-2.994 0-1.05-.472-1.68-1.628-1.995l-1.418-.368v-1.366h9.717v1.366l-.945.315c-1.366.473-2.049 1.26-3.31 4.727l-7.563 20.852h-4.517l-5.672-16.177h-.158l-5.882 16.177h-4.465zm32.827 0v-1.418l1.366-.368c1.733-.472 1.943-.735 1.943-2.994v-19.38h-3.676v-1.314l3.676-1.838v-1.418c0-7.039 5.043-11.24 13.184-11.24 4.15 0 6.618 1.47 6.618 4.201 0 1.839-1.156 2.942-3.152 2.942-2.363 0-3.519-.84-3.729-3.572-.157-1.313-.368-1.523-.998-1.523-1.89 0-3.571 1.156-3.571 5.462v5.2h6.092l-.735 3.1h-5.357v19.275c0 2.469.157 2.784 1.838 3.047l1.996.42v1.418h-15.495zm18.489 0v-1.418l1.365-.368c1.734-.472 1.944-.735 1.944-2.994V19.03c0-2.259-.263-2.417-1.734-3.414l-1.733-1.156v-1.05l11.083-1.261.577.42-.105 3.624h.21c1.629-1.733 4.622-4.044 7.669-4.044 2.521 0 4.044 1.366 4.044 3.94 0 2.52-1.576 3.939-3.624 3.939-2.416 0-3.046-.736-4.044-2.364-.315-.578-.63-.683-1.103-.683-.946 0-2.154.683-2.89 1.366v17.017c0 2.469.211 2.732 1.787 2.994l1.733.368v1.418h-15.18zm36.421.63c-7.616 0-14.234-4.622-14.234-14.234 0-10.084 7.143-14.391 14.234-14.391 7.616 0 14.286 4.57 14.286 14.129 0 10.084-7.038 14.496-14.286 14.496zm.158-2.048c3.151 0 5.305-1.838 5.305-11.923 0-10.61-2.049-12.606-5.62-12.606-3.31 0-5.253 2.416-5.253 11.45 0 10.768 1.733 13.079 5.568 13.079zm14.204 1.418v-1.418l1.365-.368c1.733-.472 1.943-.735 1.943-2.994V19.03c0-2.259-.262-2.417-1.733-3.414l-1.733-1.156v-1.05l11.082-1.261.578.368-.105 3.361h.21c2.784-1.996 6.25-3.729 10.085-3.729 4.464 0 6.88 2.311 6.88 7.038v16.177c0 2.311.21 2.574 1.891 2.994l1.366.368v1.418h-14.654v-1.418l1.26-.315c1.576-.42 1.734-.578 1.734-3.047V21.235c0-3.204-1.156-4.202-3.625-4.202-1.838 0-3.729.42-4.884.682v17.648c0 2.522.157 2.627 1.733 3.047l1.26.315v1.418h-14.653zm41.463.63c-4.727 0-7.3-2.1-7.3-7.248V15.982h-3.31v-1.26c4.097-1.576 7.249-4.622 8.72-8.824h2.993v6.985h6.986l-.683 3.1h-6.303V33c0 2.626.788 3.676 3.414 3.676 1.26 0 2.836-.262 3.782-.472v1.47c-1.26 1.156-3.887 3.1-8.299 3.1zM162.788 57.776v-9.657h2.795v9.657h-2.795zm8.451 0v-9.657h3.12l3.093 5.443V48.12h2.418v9.657h-2.674l-3.526-6.064v6.064h-2.43zm17.785.162c-2.701 0-4.079-1.134-4.16-3.228h2.634c.067.689.378 1.256 1.526 1.256.797 0 1.242-.392 1.242-.959 0-.594-.364-.756-1.526-.932-2.728-.324-3.646-1.134-3.646-3.08 0-1.741 1.431-3.01 3.74-3.01 2.324 0 3.634.972 3.81 3.01h-2.567c-.094-.688-.486-1.039-1.242-1.039-.743 0-1.121.338-1.121.824 0 .54.297.783 1.499.945 2.445.27 3.7.905 3.7 2.999 0 1.769-1.404 3.214-3.89 3.214zm13.03 0c-2.728 0-4.281-1.378-4.281-4.079v-5.74h2.769v5.619c0 1.364.337 2.026 1.512 2.026 1.148 0 1.513-.622 1.513-2.067V48.12h2.796v5.7c0 2.809-1.648 4.12-4.309 4.12zm9.857-.162v-9.657h3.781c2.526 0 3.93 1.027 3.93 3.066v.054c0 1.378-.729 2.148-1.742 2.54l2.31 3.997h-2.917l-1.959-3.458h-.648v3.458h-2.755zm2.755-5.254h.891c.932 0 1.391-.392 1.391-1.175v-.054c0-.783-.486-1.094-1.377-1.094h-.905v2.323zm9.654 5.254l3.093-9.657h3.579l3.066 9.657h-2.931l-.513-1.796h-3.201l-.514 1.796h-2.58zm4.7-7.415l-1.067 3.714h2.12l-1.053-3.714zm9.897 7.415v-9.657h3.12l3.093 5.443V48.12h2.417v9.657h-2.674l-3.525-6.064v6.064h-2.431zm18.784.162c-3.377 0-5.038-1.972-5.038-4.93V52.9c0-2.971 2.107-4.93 4.93-4.93 2.512 0 4.254 1.162 4.484 3.715h-2.85c-.108-.986-.648-1.526-1.62-1.526-1.243 0-2.027.972-2.027 2.728v.108c0 1.742.743 2.728 2.067 2.728.972 0 1.661-.513 1.796-1.58h2.755c-.189 2.498-1.999 3.795-4.497 3.795zm9.465-.162v-9.657h6.672v2.134h-3.917v1.661h3.12v1.972h-3.12v1.756h4.133v2.134h-6.888z"></path></g></svg>