<svg width="540" height="123" viewBox="0 0 540 123" fill="none" xmlns="http://www.w3.org/2000/svg">
<g clip-path="url(#clip0)">
<path d="M313.19 48.2271H291.933V50.482C298.582 50.482 299.651 51.9071 299.651 60.3391V75.5401C299.651 83.9711 298.583 85.515 291.933 85.515C286.828 84.803 283.383 82.0711 278.633 76.8461L273.171 70.909C280.533 69.601 284.451 64.971 284.451 59.745C284.451 53.215 278.871 48.2271 268.42 48.2271H247.52V50.482C254.169 50.482 255.238 51.9071 255.238 60.3391V75.5401C255.238 83.9711 254.169 85.515 247.52 85.515V87.7711H271.151V85.515C264.502 85.515 263.433 83.9711 263.433 75.5401V71.266H265.451L278.633 87.7711H313.19C330.171 87.7711 337.534 78.7471 337.534 67.9391C337.534 57.1331 330.172 48.2271 313.19 48.2271ZM263.434 67.5821V51.7901H268.302C273.645 51.7901 276.021 55.471 276.021 59.746C276.021 63.903 273.645 67.583 268.302 67.583H263.434V67.5821ZM313.547 84.09H312.715C308.441 84.09 307.847 83.022 307.847 77.559V51.7901C307.847 51.7901 313.072 51.7901 313.547 51.7901C325.897 51.7901 328.152 60.814 328.152 67.821C328.152 75.064 325.896 84.09 313.547 84.09Z" fill="black"/>
<path d="M181.378 71.9781L189.572 47.7511C191.948 40.7451 190.879 38.7271 183.279 38.7271V36.3511H205.604V38.7271C198.123 38.7271 196.342 40.5081 193.373 49.1771L179.834 89.7901H178.291L166.177 52.6201L153.828 89.7901H152.284L139.103 49.1771C136.253 40.5081 134.353 38.7271 127.465 38.7271V36.3511H153.828V38.7271C146.821 38.7271 144.92 40.3891 147.415 47.7511L155.371 71.9781L167.365 36.3511H169.622L181.378 71.9781Z" fill="black"/>
<path d="M221.752 89.3142C208.69 89.3142 198.002 79.6962 198.002 67.9382C198.002 56.3012 208.691 46.6812 221.752 46.6812C234.815 46.6812 245.502 56.3012 245.502 67.9382C245.502 79.6962 234.815 89.3142 221.752 89.3142ZM221.752 50.3652C210.828 50.3652 207.027 60.2202 207.027 67.9392C207.027 75.7782 210.828 85.5152 221.752 85.5152C232.797 85.5152 236.597 75.7782 236.597 67.9392C236.597 60.2202 232.797 50.3652 221.752 50.3652Z" fill="black"/>
<path d="M366.864 85.3961V87.7711H339.67V85.3961C347.627 85.3961 349.052 83.3781 349.052 71.5011V52.5021C349.052 40.6251 347.627 38.7261 339.67 38.7261V36.3501H364.251C376.482 36.3501 383.253 42.6441 383.253 51.0771C383.253 59.2711 376.482 65.6831 364.251 65.6831H357.482V71.5001C357.482 83.3781 358.907 85.3961 366.864 85.3961ZM364.251 40.6251H357.482V61.2891H364.251C370.902 61.2891 373.989 56.6581 373.989 51.0771C373.989 45.3771 370.902 40.6251 364.251 40.6251Z" fill="black"/>
<path d="M464.833 76.6091L464.239 78.7461C463.171 82.6651 461.863 84.09 453.432 84.09H451.769C445.595 84.09 444.526 82.6651 444.526 74.2341V68.7721C453.789 68.7721 454.502 69.602 454.502 75.778H456.758V58.083H454.502C454.502 64.258 453.789 65.089 444.526 65.089V51.7901H451.056C459.489 51.7901 460.794 53.215 461.863 57.134L462.458 59.389H464.357L463.527 48.2271H428.613V50.482C435.262 50.482 436.332 51.9071 436.332 60.3391V75.5401C436.332 83.2531 435.424 85.196 430.181 85.473C425.198 84.712 421.777 81.9941 417.096 76.8461L411.633 70.909C418.996 69.601 422.915 64.971 422.915 59.745C422.915 53.215 417.334 48.2271 406.884 48.2271H385.984V50.482C392.633 50.482 393.702 51.9071 393.702 60.3391V75.5401C393.702 83.9711 392.634 85.515 385.984 85.515V87.7711H409.616V85.515C402.967 85.515 401.897 83.9711 401.897 75.5401V71.266H403.916L417.097 87.7711H465.903L466.616 76.6101H464.833V76.6091ZM401.896 67.5821V51.7901H406.764C412.108 51.7901 414.484 55.471 414.484 59.746C414.484 63.903 412.108 67.583 406.764 67.583H401.896V67.5821Z" fill="black"/>
<path d="M488.939 89.3141C484.189 89.3141 480.032 86.8211 478.251 85.2761C477.657 85.8711 476.589 87.6521 476.352 89.3141H474.095V72.9281H476.47C477.421 80.7651 482.882 85.3961 489.889 85.3961C493.689 85.3961 496.777 83.2591 496.777 79.6971C496.777 76.6101 494.046 74.2341 489.177 71.9781L482.408 68.7721C477.657 66.5141 474.095 62.5951 474.095 57.3711C474.095 51.6711 479.439 46.8031 486.802 46.8031C490.721 46.8031 494.045 48.2281 496.065 49.8901C496.658 49.4151 497.252 48.1081 497.609 46.6821H499.865V60.6961H497.371C496.539 55.1141 493.452 50.4831 487.159 50.4831C483.834 50.4831 480.745 52.3831 480.745 55.3531C480.745 58.4401 483.239 60.1021 488.94 62.7151L495.47 65.9211C501.171 68.6521 503.426 73.0481 503.426 76.6101C503.426 84.0901 496.895 89.3141 488.939 89.3141Z" fill="black"/>
<path d="M525.514 89.3141C520.763 89.3141 516.606 86.8211 514.826 85.2761C514.232 85.8711 513.164 87.6521 512.927 89.3141H510.67V72.9281H513.045C513.995 80.7651 519.457 85.3961 526.464 85.3961C530.264 85.3961 533.352 83.2591 533.352 79.6971C533.352 76.6101 530.621 74.2341 525.751 71.9781L518.982 68.7721C514.232 66.5141 510.669 62.5951 510.669 57.3711C510.669 51.6711 516.013 46.8031 523.376 46.8031C527.295 46.8031 530.619 48.2281 532.639 49.8901C533.232 49.4151 533.826 48.1081 534.181 46.6821H536.438V60.6961H533.945C533.113 55.1141 530.026 50.4831 523.733 50.4831C520.408 50.4831 517.319 52.3831 517.319 55.3531C517.319 58.4401 519.813 60.1021 525.514 62.7151L532.044 65.9211C537.745 68.6521 540 73.0481 540 76.6101C540 84.0901 533.469 89.3141 525.514 89.3141Z" fill="black"/>
<path d="M8.70801 61.2601C8.70801 82.0621 20.797 100.039 38.327 108.558L13.258 39.8721C10.342 46.4081 8.70801 53.6411 8.70801 61.2601Z" fill="black"/>
<path d="M96.7401 58.608C96.7401 52.113 94.4071 47.615 92.4061 44.114C89.7421 39.785 87.2451 36.119 87.2451 31.79C87.2451 26.959 90.9091 22.462 96.0701 22.462C96.3031 22.462 96.5241 22.491 96.7511 22.504C87.4011 13.938 74.9441 8.70801 61.2621 8.70801C42.9021 8.70801 26.7491 18.128 17.3521 32.396C18.5851 32.433 19.7471 32.459 20.7341 32.459C26.2311 32.459 34.7401 31.792 34.7401 31.792C37.5731 31.625 37.9071 35.786 35.0771 36.121C35.0771 36.121 32.2301 36.456 29.0621 36.622L48.2001 93.547L59.701 59.054L51.5131 36.62C48.6831 36.454 46.0021 36.119 46.0021 36.119C43.1701 35.953 43.5021 31.623 46.3341 31.79C46.3341 31.79 55.013 32.457 60.177 32.457C65.673 32.457 74.1831 31.79 74.1831 31.79C77.0181 31.623 77.3511 35.784 74.5201 36.119C74.5201 36.119 71.6671 36.454 68.5051 36.62L87.4971 93.114L92.7391 75.597C95.0111 68.328 96.7401 63.107 96.7401 58.608Z" fill="black"/>
<path d="M62.184 65.8569L46.416 111.676C51.124 113.06 56.103 113.817 61.262 113.817C67.382 113.817 73.251 112.759 78.714 110.838C78.573 110.613 78.445 110.374 78.34 110.114L62.184 65.8569Z" fill="black"/>
<path d="M107.376 36.0459C107.602 37.7199 107.73 39.5169 107.73 41.4499C107.73 46.7829 106.734 52.7779 103.734 60.2739L87.6809 106.687C103.305 97.5759 113.814 80.6489 113.814 61.2609C113.815 52.1239 111.481 43.5319 107.376 36.0459Z" fill="black"/>
<path d="M61.262 0C27.483 0 0 27.481 0 61.26C0 95.043 27.483 122.523 61.262 122.523C95.04 122.523 122.527 95.043 122.527 61.26C122.526 27.481 95.04 0 61.262 0ZM61.262 119.715C29.032 119.715 2.809 93.492 2.809 61.26C2.809 29.03 29.031 2.809 61.262 2.809C93.491 2.809 119.712 29.03 119.712 61.26C119.712 93.492 93.491 119.715 61.262 119.715Z" fill="black"/>
</g>
<defs>
<clipPath id="clip0">
<rect width="540" height="122.523" fill="white"/>
</clipPath>
</defs>
</svg>
