<svg xmlns="http://www.w3.org/2000/svg" viewBox="0 0 1016.47 1016.47" width="54"><path fill="#fd8129" d="M230.38 356.95h786.09v467.09H230.38z"/><path fill="#ec4564" d="M230.38 356.95L0 187.33v457.28l230.38 179.43z"/><path fill="#fba931" d="M230.38 356.95h786.09L786.09 187.33H0z"/><path fill="#fd8129" d="M183.6 181.54v45.57c-.61 9.44 43 20 97.42 23.5s99-1.26 99.63-10.7v-45.57z"/><ellipse cx="282.13" cy="187.94" fill="#ec4564" rx="17.14" ry="98.74" transform="rotate(-86.28 282.144 187.934)"/><path fill="#fd8129" d="M535.5 181.54v45.57c-.62 9.44 43 20 97.41 23.5s99-1.26 99.64-10.7v-45.57z"/><ellipse cx="634.03" cy="187.94" fill="#ec4564" rx="17.14" ry="98.74" transform="rotate(-86.28 634.055 187.923)"/><path fill="#fd8129" d="M282.13 256.64v45.58c-.61 9.44 43 20 97.42 23.49s99-1.25 99.64-10.7v-45.57z"/><ellipse cx="380.66" cy="263.04" fill="#ec4564" rx="17.14" ry="98.74" transform="rotate(-86.28 380.681 263.037)"/><path fill="#fd8129" d="M634 256.64v45.58c-.61 9.44 43 20 97.42 23.49s99-1.25 99.64-10.7v-45.57z"/><ellipse cx="732.56" cy="263.04" fill="#ec4564" rx="17.14" ry="98.74" transform="rotate(-86.28 732.588 263.031)"/></svg>